<?xml version="1.0" encoding="utf-8"?><svg xmlns="http://www.w3.org/2000/svg" xmlns:xlink="http://www.w3.org/1999/xlink"><symbol fill="none" stroke="currentColor" stroke-linecap="round" stroke-linejoin="round" stroke-width="2" viewBox="0 0 24 24" id="agent" xmlns="http://www.w3.org/2000/svg"><rect width="18" height="10" x="3" y="11" rx="2" ry="2"/><circle cx="12" cy="5" r="2"/><path d="M12 7v4m4 5"/></symbol><symbol fill="none" stroke="currentColor" stroke-linecap="round" stroke-linejoin="round" stroke-width="2" viewBox="0 0 24 24" id="database" xmlns="http://www.w3.org/2000/svg"><ellipse cx="12" cy="5" rx="9" ry="3"/><path d="M21 12c0 1.66-4 3-9 3s-9-1.34-9-3"/><path d="M3 5v14c0 1.66 4 3 9 3s9-1.34 9-3V5"/></symbol><symbol fill="none" stroke="currentColor" stroke-linecap="round" stroke-linejoin="round" stroke-width="2" viewBox="0 0 24 24" id="pipeline" xmlns="http://www.w3.org/2000/svg"><path d="M6 11h8a4 4 0 0 0 0-8H9a1 1 0 0 0-1 1v5"/><path d="M6 7h10a4 4 0 0 1 0 8h-5a1 1 0 0 1-1-1V9M2 7h4m12 0h4"/></symbol></svg>